<svg width="70" height="17" viewBox="0 0 70 17" fill="none" xmlns="http://www.w3.org/2000/svg">
<path d="M0.0120001 15.296H0.826C1.69133 15.296 2.322 14.7607 2.718 13.69L7.448 0.336H7.998L12.772 14.328C12.9187 14.6947 13.0947 14.9513 13.3 15.098C13.5053 15.23 13.7693 15.296 14.092 15.296H15.324V16H8.504V15.296H9.956C10.176 15.296 10.3593 15.2447 10.506 15.142C10.6527 15.0247 10.726 14.8927 10.726 14.746C10.726 14.5553 10.6967 14.394 10.638 14.262L9.604 11.336H4.456L3.928 12.81C3.72267 13.3967 3.62 13.822 3.62 14.086C3.62 14.4087 3.70067 14.6947 3.862 14.944C4.02333 15.1787 4.302 15.296 4.698 15.296H6.04V16H0.0120001V15.296ZM4.698 10.632H9.362L7.074 3.922L4.698 10.632ZM20.3328 16.264C19.6728 16.264 19.1228 16.0293 18.6828 15.56C18.2574 15.0907 18.0448 14.4527 18.0448 13.646V6.584H16.4168V5.968H16.9008C17.5608 5.968 18.0741 5.616 18.4408 4.912C18.8221 4.19333 19.0128 3.40133 19.0128 2.536V1.744H19.6288V5.968H22.3568V6.584H19.6288V13.756C19.6288 14.196 19.7168 14.5627 19.8928 14.856C20.0688 15.1493 20.3694 15.296 20.7948 15.296C21.8361 15.296 22.3568 14.416 22.3568 12.656H22.7528C22.7528 13.6387 22.6061 14.4893 22.3128 15.208C22.0341 15.912 21.3741 16.264 20.3328 16.264ZM29.0802 16.264C27.7162 16.264 26.6162 15.802 25.7802 14.878C24.9589 13.954 24.5482 12.6707 24.5482 11.028C24.5482 10.0893 24.7315 9.21667 25.0982 8.41C25.4649 7.58867 25.9709 6.936 26.6162 6.452C27.2762 5.95333 28.0095 5.704 28.8162 5.704C29.7109 5.704 30.4442 5.946 31.0162 6.43C31.5882 6.914 31.9989 7.53 32.2482 8.278C32.5122 9.01133 32.6442 9.76667 32.6442 10.544C32.6442 10.7053 32.5929 10.8153 32.4902 10.874C32.3875 10.918 32.2115 10.94 31.9622 10.94H26.4842C26.4842 12.4067 26.6895 13.5727 27.1002 14.438C27.5255 15.3033 28.2149 15.736 29.1682 15.736C29.8429 15.736 30.4735 15.4793 31.0602 14.966C31.6615 14.4527 32.0429 13.6533 32.2042 12.568H32.7322C32.6442 13.6387 32.2702 14.526 31.6102 15.23C30.9649 15.9193 30.1215 16.264 29.0802 16.264ZM30.7522 10.412C30.7522 9.23867 30.5982 8.24867 30.2902 7.442C29.9822 6.63533 29.4762 6.232 28.7722 6.232C28.0242 6.232 27.4522 6.64267 27.0562 7.464C26.6749 8.27067 26.4842 9.25333 26.4842 10.412H30.7522ZM34.2273 15.472H35.3713C35.5473 15.472 35.672 15.4353 35.7453 15.362C35.8187 15.2887 35.8553 15.164 35.8553 14.988V1.348C35.8553 1.172 35.8187 1.04733 35.7453 0.973999C35.672 0.900666 35.5473 0.863999 35.3713 0.863999H34.2273V0.336H37.4393V14.988C37.4393 15.164 37.476 15.2887 37.5493 15.362C37.6227 15.4353 37.7473 15.472 37.9233 15.472H39.0673V16H34.2273V15.472ZM42.445 3.24C42.1223 3.24 41.851 3.13 41.631 2.91C41.411 2.69 41.301 2.41867 41.301 2.096C41.301 1.75867 41.411 1.48733 41.631 1.282C41.851 1.062 42.1223 0.952 42.445 0.952C42.7823 0.952 43.0537 1.062 43.259 1.282C43.479 1.48733 43.589 1.75867 43.589 2.096C43.589 2.41867 43.479 2.69 43.259 2.91C43.0537 3.13 42.7823 3.24 42.445 3.24ZM40.377 15.472H41.301C41.477 15.472 41.6017 15.4353 41.675 15.362C41.7483 15.2887 41.785 15.164 41.785 14.988V6.98C41.785 6.804 41.7483 6.67933 41.675 6.606C41.6017 6.53267 41.477 6.496 41.301 6.496H40.377V5.968H43.369V14.988C43.369 15.164 43.4057 15.2887 43.479 15.362C43.5523 15.4353 43.677 15.472 43.853 15.472H44.777V16H40.377V15.472ZM51.0587 16.264C49.6947 16.264 48.5947 15.802 47.7587 14.878C46.9374 13.954 46.5267 12.6707 46.5267 11.028C46.5267 10.0893 46.71 9.21667 47.0767 8.41C47.4434 7.58867 47.9494 6.936 48.5947 6.452C49.2547 5.95333 49.988 5.704 50.7947 5.704C51.6894 5.704 52.4227 5.946 52.9947 6.43C53.5667 6.914 53.9774 7.53 54.2267 8.278C54.4907 9.01133 54.6227 9.76667 54.6227 10.544C54.6227 10.7053 54.5714 10.8153 54.4687 10.874C54.366 10.918 54.19 10.94 53.9407 10.94H48.4627C48.4627 12.4067 48.668 13.5727 49.0787 14.438C49.504 15.3033 50.1934 15.736 51.1467 15.736C51.8214 15.736 52.452 15.4793 53.0387 14.966C53.64 14.4527 54.0214 13.6533 54.1827 12.568H54.7107C54.6227 13.6387 54.2487 14.526 53.5887 15.23C52.9434 15.9193 52.1 16.264 51.0587 16.264ZM52.7307 10.412C52.7307 9.23867 52.5767 8.24867 52.2687 7.442C51.9607 6.63533 51.4547 6.232 50.7507 6.232C50.0027 6.232 49.4307 6.64267 49.0347 7.464C48.6534 8.27067 48.4627 9.25333 48.4627 10.412H52.7307ZM56.4258 15.472H57.3498C57.5258 15.472 57.6505 15.4353 57.7238 15.362C57.7972 15.2887 57.8338 15.164 57.8338 14.988V6.98C57.8338 6.804 57.7972 6.67933 57.7238 6.606C57.6505 6.53267 57.5258 6.496 57.3498 6.496H56.4258V5.968H59.4178V8.168L59.5058 8.19C59.8138 7.42733 60.2098 6.826 60.6938 6.386C61.1925 5.93133 61.7205 5.704 62.2778 5.704C62.8352 5.704 63.2898 5.86533 63.6418 6.188C63.9938 6.51067 64.1698 6.95067 64.1698 7.508C64.1698 7.83067 64.0525 8.146 63.8178 8.454C63.5978 8.762 63.3118 8.916 62.9598 8.916C62.6812 8.916 62.4465 8.84267 62.2558 8.696C62.0652 8.54933 61.9698 8.344 61.9698 8.08C61.9698 7.772 62.1165 7.508 62.4098 7.288C62.5418 7.2 62.6372 7.11933 62.6958 7.046C62.7692 6.97267 62.8058 6.87733 62.8058 6.76C62.8058 6.628 62.7398 6.52533 62.6078 6.452C62.4905 6.364 62.3218 6.32 62.1018 6.32C61.6472 6.32 61.2072 6.54 60.7818 6.98C60.3712 7.42 60.0412 7.992 59.7918 8.696C59.5425 9.4 59.4178 10.1333 59.4178 10.896V14.988C59.4178 15.164 59.4545 15.2887 59.5278 15.362C59.6012 15.4353 59.7258 15.472 59.9018 15.472H60.8258V16H56.4258V15.472ZM67.6933 16.264C67.2973 16.264 66.9673 16.1393 66.7033 15.89C66.4539 15.626 66.3293 15.296 66.3293 14.9C66.3293 14.504 66.4539 14.1813 66.7033 13.932C66.9673 13.668 67.2973 13.536 67.6933 13.536C68.0893 13.536 68.4119 13.668 68.6613 13.932C68.9253 14.1813 69.0573 14.504 69.0573 14.9C69.0573 15.296 68.9253 15.626 68.6613 15.89C68.4119 16.1393 68.0893 16.264 67.6933 16.264Z" fill="#FFAE2B"/>
</svg>
